# xmcd
#
# Track frame offsets: 
#        150
#        15375
#        35205
#        50412
#
# Disc length: 871 seconds
#
# Revision: 0
# Processed by: cddbd v1.5.2PL0 Copyright (c) Steve Scherf et al.
# Submitted via: ExactAudioCopy v1.0b6
#
DISCID=2b036504
DTITLE=三枝夕夏 IN db / いつも心に太陽を
DYEAR=
DGENRE=Soundtrack
TTITLE0=いつも心に太陽を
TTITLE1=最後のキスは氷のように冷たかった
TTITLE2=アツイ情熱抱きしめて
TTITLE3=いつも心に太陽を ～Instrumental～
EXTD=
EXTT0=
EXTT1=
EXTT2=
EXTT3=
PLAYORDER=
